<svg version="1.1" xmlns="http://www.w3.org/2000/svg" xmlns:xlink="http://www.w3.org/1999/xlink" width="269.5" height="66.5" viewBox="0,0,269.5,66.5"><g transform="translate(-105.25,-146.75)"><g data-paper-data="{&quot;isPaintingLayer&quot;:true}" fill-rule="nonzero" stroke-linecap="butt" stroke-linejoin="miter" stroke-miterlimit="10" stroke-dasharray="" stroke-dashoffset="0" style="mix-blend-mode: normal"><path d="M374.5,180c0,18.2254 -60.2177,33 -134.5,33c-74.2823,0 -134.5,-14.7746 -134.5,-33c0,-18.2254 60.2177,-33 134.5,-33c74.2823,0 134.5,14.7746 134.5,33z" fill="#ff9766" stroke="#ff9165" stroke-width="0.5"/><path d="M179.54952,158.22561c0,0 1.11803,-2.23607 3.3541,-1.11803c2.23607,1.11803 1.11803,3.3541 1.11803,3.3541c-0.12805,0.256 -0.25787,0.51324 -0.38903,0.77167c0.66021,0.14771 1.22182,0.55656 1.57075,1.11245c0.14867,-0.09037 0.29713,-0.17807 0.44527,-0.26299c1.65717,0.42437 3.77678,0.04882 4.97153,1.27312c1.03789,1.06357 0.56674,2.93382 0.58393,4.41978c0.07831,6.76756 -5.39389,11.26571 -9.81545,15.41564c-0.91125,0.85527 -1.3513,2.48767 -2.57901,2.72129c-1.43704,0.27345 -2.54811,0.36404 -3.40845,0.28811l-1.36359,2.45445c-0.41981,0.7909 -1.25182,1.32954 -2.20964,1.32954c-1.30724,0 -2.38015,-1.00335 -2.49062,-2.28195c-1.00969,-0.32129 -1.74114,-1.2666 -1.74114,-2.38275c0,-0.27041 0.04292,-0.53078 0.12234,-0.77469c-0.84063,-0.40274 -1.42117,-1.26152 -1.42117,-2.25589c0,-0.29691 0.05176,-0.58173 0.14675,-0.84593l0.84742,-2.54228l0.08196,0.02732l-0.01995,-0.19346c0.09749,-0.19597 0.1946,-0.39228 0.2914,-0.58886c-0.27937,-1.03223 0.23336,-2.15008 0.42086,-3.21051c0.59393,-3.35909 1.63108,-6.45189 2.24196,-9.73944c-0.0268,-0.66662 -0.09703,-1.34323 0.28505,-1.81015c0.02061,-0.16258 0.03987,-0.3258 0.05768,-0.48972l0.0431,-0.06186l-0.03281,-0.00547l0.42618,-2.55711c0.179,-1.20504 1.21791,-2.12954 2.47274,-2.12954c1.38071,0 2.5,1.11929 2.5,2.5c0,0.1348 -0.01067,0.26711 -0.03121,0.39613l-0.42686,2.988c0.02164,0.16442 0.02942,0.34319 0.02535,0.53365l0.96714,-0.55265c0.96071,-1.96087 2.01313,-3.89673 2.95537,-5.78198zM184.51598,169.66616c-0.37491,1.61459 -0.76556,3.28041 -1.25337,4.87962c0.74481,-0.92479 1.40848,-1.89836 1.90539,-2.87938c0.42768,-0.84431 1.76471,-5.31094 1.41331,-4.67136c-0.90517,0.64009 -1.28924,1.80982 -2.03109,2.63365c-0.01133,0.01258 -0.02275,0.02507 -0.03425,0.03748z" fill="#ff9766" stroke="none" stroke-width="0.5"/><text transform="translate(157.73096,190.91513) scale(0.94606,0.94606)" font-size="40" xml:space="preserve" fill="#000000" fill-rule="nonzero" stroke="none" stroke-width="1" stroke-linecap="butt" stroke-linejoin="miter" stroke-miterlimit="10" stroke-dasharray="" stroke-dashoffset="0" font-family="Marker" font-weight="normal" text-anchor="start" style="mix-blend-mode: normal"><tspan x="0" dy="0">SETTINGS</tspan></text></g></g></svg>