<svg version="1.1" xmlns="http://www.w3.org/2000/svg" xmlns:xlink="http://www.w3.org/1999/xlink" width="277" height="278" viewBox="0,0,277,278"><g transform="translate(-34.53697,39.31817)"><g data-paper-data="{&quot;isPaintingLayer&quot;:true}" fill-rule="nonzero" stroke-linecap="butt" stroke-linejoin="miter" stroke-miterlimit="10" stroke-dasharray="" stroke-dashoffset="0" style="mix-blend-mode: normal"><path d="M34.53697,-38.31817v-1h1v1z" fill="#ffffff" stroke="none" stroke-width="NaN"/><path d="M162.53697,238.68183v-122h149v122z" fill="#ff7b00" stroke="none" stroke-width="0"/><path d="M295.46389,207.00827c-11.32669,16.13608 -32.49136,26.99173 -56.73146,26.99173c-36.17465,0 -65.5,-24.17662 -65.5,-54c0,-29.82338 29.32535,-54 65.5,-54c27.81503,0 51.58061,14.29375 61.07921,34.45764" fill="none" stroke="#ff0000" stroke-width="5"/><path d="M305.05996,137.31012c2.37171,0.79057 1.58114,3.16228 1.58114,3.16228l-1,3c-0.62446,1.87339 -1.57808,3.66224 -1.90399,5.60989c-0.358,2.13943 0.69357,4.44686 -0.15802,6.55625c-0.47293,1.17144 -1.69462,1.87404 -2.54193,2.81106c0,0 -0.18285,0.18285 -0.48975,0.37213c-0.61194,1.3601 -2.27802,1.3601 -2.27802,1.3601c-2.97392,0 -6.47128,0.44014 -9.40046,-0.03228c-1.04064,-0.16784 -1.9613,-0.82049 -3,-1c-1.97079,-0.34059 -4.02552,0.31845 -6,0c-1.87002,-0.3016 -3.70551,-0.99124 -5.59954,-0.96772h-1c0,0 -2.5,0 -2.5,-2.5c0,-2.5 2.5,-2.5 2.5,-2.5h1c2.16096,0.02051 4.27097,0.66426 6.40046,1.03228c1.97079,0.34059 4.02552,-0.31845 6,0c1.04064,0.16784 1.9613,0.82049 3,1c2.31673,0.40038 5.12889,0.07265 7.59535,-0.01314c0.13237,-0.18286 0.23642,-0.28691 0.23642,-0.28691c2.50063,-2.03907 0.77566,-3.47671 1.30005,-6.63269c0.04383,-0.26376 1.94213,-5.92847 2.09601,-6.39011l1,-3c0,0 0.79057,-2.37171 3.16228,-1.58114z" fill="#ff0000" stroke="none" stroke-width="0.5"/></g></g></svg>